# xmcd
#
# Track frame offsets:
#	150
#	11850
#	24682
#	37630
#	48699
#	59012
#	69264
#	82369
#	95391
#	108247
#	118893
#	129725
#	141781
#	154329
#	165904
#	175913
#	188416
#	197730
#	208045
#	221359
#	233423
#	243779
#	254823
#	263666
#	275946
#
# Disc length: 3818 seconds
#
# Revision: 0
# Processed by: cddbd v1.4PL0 Copyright (c) Steve Scherf et al.
# Submitted via: EasyCDDAExtractor 4.6.0.1
#
DISCID=6c0ee819
DTITLE=Various Artist - M-G-M Doo-Wops #2
DYEAR=1900
DGENRE=Blues
TTITLE0=Hide-A-Ways - Cherie
TTITLE1=Richard Barrett - Body And Soul
TTITLE2=Chuck Alaimo Quartet - How I Love You
TTITLE3=Elgins - A Picture Of You
TTITLE4=Bachelors - Sometimes
TTITLE5=Wanderers - As Time Goes By
TTITLE6=Gladys Patrick - Love Is A Wailing Thing
TTITLE7=Beale Street Boys - Home
TTITLE8=Charioteers - The Candle
TTITLE9=Butterball Four (Billy Brollin and the) - Diamond Mine In Madagascar 
TTITLE10=Five Shades - One Hot Dog
TTITLE11=Chuck Alaimo Quartet - Lovers Again
TTITLE12=Beale Street Boys - Wedding Bells
TTITLE13=Gladys Patrick - Somebody Please
TTITLE14=Wanderers - There Is No Greater Love
TTITLE15=Richard Barrett - Lovable
TTITLE16=Elgins - Mademoiselle
TTITLE17=Hide-A-Ways - Me Make Um Pow Wow
TTITLE18=Beale Street Boys - Teach Me, Teach Me Baby
TTITLE19=Charioteers - I Didn't Mean To Be Mean To You
TTITLE20=Butterball Four (Billy Brollin and the) - You Broke My Heart
TTITLE21=Five Shades - Sherlock Jones
TTITLE22=Chuck Alaimo Quartet - Where's My Baby
TTITLE23=Beale Street Boys - Why Does It Have To Rain On Sunday
TTITLE24=Richard Barrett - The Party
EXTD=
EXTT0=
EXTT1=
EXTT2=
EXTT3=
EXTT4=
EXTT5=
EXTT6=
EXTT7=
EXTT8=
EXTT9=
EXTT10=
EXTT11=
EXTT12=
EXTT13=
EXTT14=
EXTT15=
EXTT16=
EXTT17=
EXTT18=
EXTT19=
EXTT20=
EXTT21=
EXTT22=
EXTT23=
EXTT24=
PLAYORDER=
